# xmcd CD database file
#
# Track frame offsets:
#	150
#	77563
#	281520
#
# Disc length: 4496 seconds
#
# Revision: 0
# Processed by: cddbd v1.5.2PL0 Copyright (c) Steve Scherf et al.
# Submitted via: CDex 1.51
#
DISCID=1c118e03
DTITLE=Talgo - Indoceane
DYEAR=1900
DGENRE=New Age
TTITLE0=Mediterraneo
TTITLE1=India
TTITLE2=China
EXTD=
EXTT0=
EXTT1=
EXTT2=
PLAYORDER=
